<svg 
 xmlns="http://www.w3.org/2000/svg"
 xmlns:xlink="http://www.w3.org/1999/xlink"
 width="54px" height="60px">
<path fill-rule="evenodd"  fill="rgb(46, 90, 232)"
 d="M47.974,45.189 C47.931,45.436 47.792,45.656 47.586,45.800 L27.539,59.830 C27.377,59.942 27.189,59.999 27.000,59.999 C26.811,59.999 26.623,59.942 26.461,59.830 L6.413,45.800 C6.208,45.656 6.068,45.436 6.026,45.189 L0.012,10.115 C-0.066,9.661 0.196,9.219 0.631,9.068 L26.693,0.050 C26.892,-0.020 27.108,-0.020 27.307,0.050 L53.369,9.068 C53.804,9.219 54.066,9.661 53.988,10.115 L47.974,45.189 ZM27.000,1.931 L1.999,10.583 L7.812,44.485 L27.000,57.913 L46.188,44.485 L52.001,10.583 L27.000,1.931 ZM44.146,43.620 L27.539,55.242 C27.377,55.356 27.188,55.412 27.000,55.412 C26.811,55.412 26.623,55.356 26.461,55.242 L9.853,43.620 C9.648,43.476 9.508,43.257 9.466,43.009 L4.256,12.623 C4.178,12.169 4.440,11.727 4.874,11.577 L26.692,4.027 C26.891,3.957 27.108,3.957 27.307,4.027 L49.125,11.577 C49.560,11.727 49.822,12.169 49.744,12.623 L44.534,43.009 C44.491,43.257 44.352,43.476 44.146,43.620 ZM27.000,5.908 L6.243,13.091 L11.252,42.305 L27.000,53.326 L42.748,42.305 L47.757,13.091 L27.000,5.908 ZM40.796,37.953 C40.743,37.953 40.690,37.948 40.636,37.939 C40.124,37.852 39.781,37.366 39.868,36.855 L41.329,28.336 C41.417,27.826 41.903,27.482 42.414,27.569 C42.926,27.657 43.269,28.142 43.182,28.654 L41.721,37.172 C41.642,37.629 41.245,37.953 40.796,37.953 ZM42.704,20.320 L43.513,15.599 L38.220,13.768 C37.730,13.598 37.470,13.063 37.640,12.573 C37.809,12.083 38.344,11.822 38.835,11.992 L44.881,14.085 C45.316,14.235 45.578,14.678 45.500,15.131 L44.556,20.638 C44.478,21.095 44.080,21.418 43.631,21.418 C43.578,21.418 43.525,21.414 43.471,21.405 C42.960,21.317 42.616,20.831 42.704,20.320 ZM36.021,41.961 L17.979,41.961 C17.460,41.961 17.039,41.541 17.039,41.022 L17.039,36.011 C17.039,31.099 20.616,27.008 25.303,26.200 C22.565,25.453 20.547,22.947 20.547,19.978 C20.547,16.420 23.442,13.526 27.000,13.526 C30.558,13.526 33.453,16.420 33.453,19.978 C33.453,22.947 31.435,25.453 28.697,26.200 C33.384,27.008 36.961,31.099 36.961,36.011 L36.961,41.022 C36.961,41.541 36.540,41.961 36.021,41.961 ZM31.573,19.978 C31.573,17.456 29.522,15.405 27.000,15.405 C24.478,15.405 22.427,17.456 22.427,19.978 C22.427,22.499 24.478,24.549 27.000,24.549 C29.522,24.549 31.573,22.499 31.573,19.978 ZM35.082,36.011 C35.082,31.556 31.456,27.931 27.000,27.931 C22.544,27.931 18.918,31.557 18.918,36.011 L18.918,40.082 L35.082,40.082 L35.082,40.082 L35.082,36.011 ZM36.021,12.952 C35.919,12.952 35.815,12.935 35.714,12.900 L31.704,11.513 C31.213,11.343 30.953,10.808 31.123,10.318 C31.293,9.827 31.828,9.567 32.318,9.737 L36.328,11.125 C36.819,11.294 37.079,11.830 36.909,12.319 C36.774,12.709 36.410,12.952 36.021,12.952 Z"/>
</svg>