<svg 
 xmlns="http://www.w3.org/2000/svg"
 xmlns:xlink="http://www.w3.org/1999/xlink"
 width="60px" height="60px">
<path fill-rule="evenodd"  fill="rgb(46, 90, 232)"
 d="M51.213,51.213 C45.547,56.879 38.013,60.000 30.000,60.000 C21.987,60.000 14.453,56.879 8.787,51.213 C3.120,45.547 -0.000,38.013 -0.000,30.000 C-0.000,21.986 3.120,14.453 8.787,8.786 C14.453,3.120 21.987,-0.000 30.000,-0.000 C38.013,-0.000 45.547,3.120 51.213,8.786 C56.879,14.453 60.000,21.986 60.000,30.000 C60.000,38.013 56.879,45.547 51.213,51.213 ZM30.000,1.761 C14.429,1.761 1.761,14.429 1.761,30.000 C1.761,45.571 14.429,58.238 30.000,58.238 C45.571,58.238 58.239,45.571 58.239,30.000 C58.239,14.429 45.571,1.761 30.000,1.761 ZM41.655,34.242 C41.822,33.785 42.327,33.549 42.784,33.715 L47.777,35.533 C48.165,35.674 48.408,36.080 48.348,36.489 C48.284,36.915 47.908,37.241 47.476,37.241 C47.376,37.241 47.275,37.225 47.175,37.188 L42.182,35.371 C41.725,35.204 41.489,34.699 41.655,34.242 ZM42.528,43.773 L38.771,40.015 C38.427,39.672 38.427,39.114 38.771,38.770 C39.115,38.426 39.672,38.426 40.016,38.770 L43.773,42.527 C44.094,42.848 44.115,43.378 43.820,43.722 C43.491,44.107 42.886,44.131 42.528,43.773 ZM30.039,49.667 L30.000,49.667 C19.155,49.667 10.333,40.844 10.333,30.000 C10.333,19.155 19.155,10.332 30.000,10.332 C35.232,10.332 40.156,12.364 43.866,16.053 C47.574,19.740 49.634,24.649 49.666,29.877 C49.667,30.112 49.575,30.337 49.410,30.503 C49.245,30.669 49.020,30.763 48.785,30.763 L44.088,30.763 C43.605,30.763 43.212,30.373 43.208,29.889 C43.149,22.667 37.224,16.790 30.000,16.790 C22.716,16.790 16.791,22.716 16.791,30.000 C16.791,37.283 22.715,43.208 29.998,43.209 L30.039,43.208 C30.526,43.208 30.920,43.603 30.920,44.089 L30.920,48.786 C30.920,49.272 30.526,49.667 30.039,49.667 ZM29.158,44.947 C21.293,44.509 15.029,37.972 15.029,30.000 C15.029,21.745 21.745,15.029 30.000,15.029 C33.977,15.029 37.722,16.572 40.544,19.373 C43.157,21.967 44.698,25.358 44.937,29.002 L47.877,29.002 C47.356,19.600 39.515,12.094 30.000,12.094 C20.127,12.094 12.094,20.126 12.094,30.000 C12.094,39.591 19.674,47.446 29.158,47.886 L29.158,44.947 ZM34.242,41.655 C34.700,41.488 35.205,41.725 35.371,42.182 L37.188,47.175 C37.344,47.602 37.138,48.092 36.723,48.279 C36.262,48.486 35.706,48.252 35.533,47.777 L33.716,42.784 C33.550,42.327 33.785,41.822 34.242,41.655 ZM30.000,33.699 C27.961,33.699 26.301,32.039 26.301,30.000 C26.301,28.189 27.608,26.681 29.328,26.364 L29.887,24.711 C29.932,24.578 30.008,24.458 30.109,24.360 L35.024,19.605 C35.308,19.330 35.753,19.280 36.091,19.484 C36.419,19.682 36.583,20.081 36.490,20.452 L34.830,27.085 C34.796,27.222 34.729,27.347 34.637,27.453 L33.485,28.763 C33.623,29.150 33.699,29.566 33.699,30.000 C33.699,32.039 32.039,33.699 30.000,33.699 ZM30.000,28.062 C28.932,28.062 28.063,28.931 28.063,30.000 C28.063,31.068 28.932,31.937 30.000,31.937 C31.068,31.937 31.937,31.068 31.937,30.000 C31.937,28.931 31.068,28.062 30.000,28.062 ZM34.033,23.014 L31.487,25.477 L31.146,26.484 C31.642,26.646 32.091,26.909 32.470,27.250 L33.173,26.451 L34.033,23.014 ZM47.892,47.891 C43.113,52.671 36.759,55.303 30.000,55.303 C23.241,55.303 16.887,52.671 12.108,47.891 C7.329,43.112 4.697,36.758 4.697,30.000 C4.697,23.241 7.329,16.887 12.108,12.108 C16.887,7.329 23.241,4.696 30.000,4.696 C34.904,4.696 39.660,6.101 43.756,8.759 C44.164,9.024 44.280,9.569 44.015,9.977 C43.750,10.385 43.205,10.501 42.797,10.236 C38.988,7.764 34.562,6.458 30.000,6.458 C17.019,6.458 6.458,17.019 6.458,30.000 C6.458,42.980 17.019,53.542 30.000,53.542 C42.981,53.542 53.542,42.981 53.542,30.000 C53.542,23.491 50.944,17.434 46.228,12.944 C45.875,12.609 45.862,12.052 46.197,11.699 C46.532,11.347 47.089,11.333 47.442,11.668 C49.899,14.007 51.833,16.762 53.188,19.857 C54.592,23.061 55.303,26.474 55.303,30.000 C55.303,36.758 52.671,43.112 47.892,47.891 Z"/>
</svg>