<svg 
 xmlns="http://www.w3.org/2000/svg"
 xmlns:xlink="http://www.w3.org/1999/xlink"
 width="60px" height="60px">
<path fill-rule="evenodd"  fill="rgb(46, 90, 232)"
 d="M59.056,53.055 C58.811,53.618 58.055,53.762 57.623,53.327 L49.420,45.076 L45.340,49.180 L53.542,57.431 C53.975,57.866 53.832,58.627 53.272,58.873 C51.841,59.505 50.310,59.825 48.764,59.825 C48.096,59.825 47.425,59.765 46.758,59.645 C44.493,59.236 42.434,58.152 40.801,56.510 C39.169,54.868 38.091,52.796 37.685,50.519 C37.324,48.496 37.510,46.440 38.222,44.533 L31.274,37.544 C30.929,37.197 30.929,36.635 31.274,36.288 C31.619,35.941 32.178,35.941 32.524,36.288 L39.886,43.693 C40.143,43.952 40.216,44.343 40.070,44.679 C38.490,48.303 39.268,52.454 42.050,55.254 C44.515,57.732 48.034,58.629 51.309,57.698 L43.466,49.809 C43.121,49.462 43.121,48.899 43.466,48.552 L48.796,43.191 C49.141,42.844 49.700,42.844 50.045,43.191 L57.888,51.081 C58.814,47.785 57.922,44.246 55.458,41.767 C52.675,38.967 48.549,38.186 44.945,39.774 C44.612,39.921 44.223,39.848 43.966,39.589 L35.779,31.354 C35.435,31.007 35.435,30.444 35.779,30.098 C36.124,29.751 36.684,29.751 37.029,30.098 L44.801,37.916 C46.696,37.200 48.741,37.012 50.750,37.375 C53.015,37.784 55.074,38.868 56.707,40.510 C58.339,42.152 59.417,44.224 59.823,46.502 C60.220,48.726 59.955,50.992 59.056,53.055 ZM54.257,12.010 C54.171,12.146 54.050,12.256 53.907,12.328 L48.706,14.944 L29.902,33.859 C29.854,33.907 29.801,33.948 29.745,33.983 L29.745,41.690 C29.746,41.923 29.651,42.154 29.487,42.318 L13.498,58.402 C13.401,58.499 13.282,58.574 13.152,58.617 L9.155,59.957 C8.841,60.063 8.486,59.978 8.251,59.743 L0.257,51.701 C0.020,51.463 -0.062,51.110 0.043,50.791 L1.376,46.770 C1.419,46.641 1.493,46.519 1.589,46.423 L17.578,30.339 C17.742,30.175 17.971,30.079 18.203,30.079 L25.831,30.079 L44.791,11.007 L47.392,5.774 C47.464,5.630 47.573,5.508 47.708,5.422 L55.036,0.731 C55.386,0.507 55.842,0.558 56.135,0.852 L58.800,3.533 C59.093,3.827 59.143,4.287 58.920,4.638 L54.257,12.010 ZM27.613,41.690 L24.865,38.926 L22.034,41.774 C21.674,42.135 21.068,42.111 20.737,41.723 C20.441,41.375 20.463,40.841 20.784,40.517 L23.616,37.669 L22.200,36.245 L7.460,51.072 L8.876,52.496 L17.879,43.440 C18.224,43.093 18.784,43.093 19.129,43.440 C19.474,43.786 19.474,44.349 19.129,44.696 L10.125,53.753 L12.873,56.517 L27.613,41.690 ZM1.892,50.832 L9.114,58.097 L11.238,57.386 L2.600,48.696 L1.892,50.832 ZM18.203,32.224 L3.463,47.052 L6.211,49.815 L20.951,34.988 L18.203,32.224 ZM20.335,31.856 L27.979,39.545 L27.979,34.016 L25.831,31.856 L20.335,31.856 ZM27.446,30.968 L28.862,32.392 L46.933,14.214 L45.517,12.790 L27.446,30.968 ZM55.387,2.613 L48.863,6.789 L46.592,11.358 L48.357,13.133 L52.898,10.848 L57.050,4.286 L55.387,2.613 ZM28.238,23.768 L20.647,16.133 C20.390,15.874 20.317,15.483 20.463,15.148 C22.043,11.523 21.265,7.372 18.483,4.573 C16.018,2.093 12.499,1.197 9.224,2.128 L17.067,10.018 C17.407,10.360 17.407,10.932 17.067,11.274 L11.737,16.635 C11.392,16.982 10.833,16.982 10.488,16.635 L2.645,8.746 C1.719,12.041 2.611,15.580 5.075,18.059 C7.858,20.858 11.984,21.640 15.588,20.052 C15.921,19.905 16.310,19.979 16.567,20.237 L23.023,26.732 C23.345,27.055 23.366,27.590 23.070,27.937 C22.740,28.325 22.133,28.349 21.774,27.988 L15.732,21.911 C13.836,22.626 11.792,22.814 9.782,22.451 C7.518,22.042 5.458,20.958 3.826,19.316 C2.194,17.674 1.116,15.602 0.709,13.325 C0.313,11.100 0.578,8.833 1.477,6.771 C1.722,6.208 2.477,6.065 2.910,6.500 L11.113,14.750 L15.193,10.646 L6.991,2.395 C6.558,1.960 6.701,1.199 7.261,0.953 C9.311,0.049 11.564,-0.218 13.775,0.181 C16.040,0.590 18.099,1.674 19.732,3.316 C21.364,4.958 22.442,7.030 22.848,9.308 C23.209,11.329 23.023,13.386 22.311,15.293 L29.487,22.511 C29.827,22.853 29.827,23.426 29.487,23.768 C29.147,24.110 28.578,24.110 28.238,23.768 Z"/>
</svg>