<svg 
 xmlns="http://www.w3.org/2000/svg"
 xmlns:xlink="http://www.w3.org/1999/xlink"
 width="54px" height="60px">
<path fill-rule="evenodd"  fill="rgb(46, 90, 232)"
 d="M46.183,46.000 C45.794,46.392 45.161,46.394 44.769,46.007 C44.376,45.617 44.373,44.985 44.762,44.592 C49.430,39.880 52.000,33.632 52.000,26.999 C52.000,13.214 40.785,1.999 27.000,1.999 C13.215,1.999 2.000,13.214 2.000,26.999 C2.000,39.926 11.862,50.592 24.457,51.870 L20.293,47.706 C19.902,47.315 19.902,46.683 20.293,46.292 C20.684,45.902 21.316,45.902 21.707,46.292 L27.706,52.291 C27.799,52.384 27.872,52.494 27.923,52.617 C28.024,52.861 28.024,53.137 27.923,53.381 C27.872,53.504 27.799,53.615 27.706,53.706 L21.707,59.706 C21.512,59.901 21.256,59.999 21.000,59.999 C20.744,59.999 20.488,59.901 20.293,59.706 C19.902,59.314 19.902,58.683 20.293,58.292 L24.691,53.894 C10.881,52.718 -0.000,41.108 -0.000,26.999 C-0.000,12.111 12.112,-0.001 27.000,-0.001 C41.888,-0.001 54.000,12.111 54.000,26.999 C54.000,34.162 51.224,40.910 46.183,46.000 ZM27.000,9.999 C30.309,9.999 33.000,12.690 33.000,15.999 L33.000,20.999 L38.000,20.999 L38.000,39.999 L16.000,39.999 L16.000,20.999 L21.000,20.999 L21.000,15.999 C21.000,12.690 23.691,9.999 27.000,9.999 ZM31.000,15.999 C31.000,13.793 29.206,11.999 27.000,11.999 C24.794,11.999 23.000,13.793 23.000,15.999 L23.000,20.999 L31.000,20.999 L31.000,15.999 ZM18.000,22.999 L18.000,37.999 L36.000,37.999 L36.000,22.999 L33.000,22.999 L21.000,22.999 L18.000,22.999 ZM27.000,24.999 C29.206,24.999 31.000,26.793 31.000,28.999 C31.000,30.858 29.720,32.410 28.000,32.857 L28.000,34.999 C28.000,35.552 27.552,35.999 27.000,35.999 C26.448,35.999 26.000,35.552 26.000,34.999 L26.000,32.857 C24.280,32.410 23.000,30.858 23.000,28.999 C23.000,26.793 24.794,24.999 27.000,24.999 ZM27.000,30.999 C28.103,30.999 29.000,30.102 29.000,28.999 C29.000,27.896 28.103,26.999 27.000,26.999 C25.897,26.999 25.000,27.896 25.000,28.999 C25.000,30.102 25.897,30.999 27.000,30.999 Z"/>
</svg>